<svg width="457" height="48" viewBox="0 0 457 48" fill="none" xmlns="http://www.w3.org/2000/svg">
<path d="M22.512 41L11.184 26.12V41H2.976V7.304H11.184V22.088L22.416 7.304H32.064L19.008 23.816L32.544 41H22.512ZM60.6848 7.304V13.88H51.7568V41H43.5488V13.88H34.6208V7.304H60.6848ZM72.8681 7.304V27.464C72.8681 29.48 73.3641 31.032 74.3561 32.12C75.3481 33.208 76.8041 33.752 78.7241 33.752C80.6441 33.752 82.1161 33.208 83.1401 32.12C84.1641 31.032 84.6761 29.48 84.6761 27.464V7.304H92.8841V27.416C92.8841 30.424 92.2441 32.968 90.9641 35.048C89.6841 37.128 87.9561 38.696 85.7801 39.752C83.6361 40.808 81.2361 41.336 78.5801 41.336C75.9241 41.336 73.5401 40.824 71.4281 39.8C69.3481 38.744 67.7001 37.176 66.4841 35.096C65.2681 32.984 64.6601 30.424 64.6601 27.416V7.304H72.8681Z" fill="black"/>
<path d="M121.444 7.304C124.996 7.304 128.1 8.008 130.756 9.416C133.412 10.824 135.46 12.808 136.9 15.368C138.372 17.896 139.108 20.824 139.108 24.152C139.108 27.448 138.372 30.376 136.9 32.936C135.46 35.496 133.396 37.48 130.708 38.888C128.052 40.296 124.964 41 121.444 41H108.82V7.304H121.444ZM120.916 33.896C124.02 33.896 126.436 33.048 128.164 31.352C129.892 29.656 130.756 27.256 130.756 24.152C130.756 21.048 129.892 18.632 128.164 16.904C126.436 15.176 124.02 14.312 120.916 14.312H117.028V33.896H120.916ZM155.887 41.384C153.263 41.384 150.895 40.824 148.783 39.704C146.703 38.584 145.055 36.984 143.839 34.904C142.655 32.824 142.063 30.392 142.063 27.608C142.063 24.856 142.671 22.44 143.887 20.36C145.103 18.248 146.767 16.632 148.879 15.512C150.991 14.392 153.359 13.832 155.983 13.832C158.607 13.832 160.975 14.392 163.087 15.512C165.199 16.632 166.863 18.248 168.079 20.36C169.295 22.44 169.903 24.856 169.903 27.608C169.903 30.36 169.279 32.792 168.031 34.904C166.815 36.984 165.135 38.584 162.991 39.704C160.879 40.824 158.511 41.384 155.887 41.384ZM155.887 34.28C157.455 34.28 158.783 33.704 159.871 32.552C160.991 31.4 161.551 29.752 161.551 27.608C161.551 25.464 161.007 23.816 159.919 22.664C158.863 21.512 157.551 20.936 155.983 20.936C154.383 20.936 153.055 21.512 151.999 22.664C150.943 23.784 150.415 25.432 150.415 27.608C150.415 29.752 150.927 31.4 151.951 32.552C153.007 33.704 154.319 34.28 155.887 34.28ZM212.705 14.216L205.457 41H196.385L192.161 23.624L187.793 41H178.769L171.473 14.216H179.681L183.473 33.368L187.985 14.216H196.673L201.233 33.272L204.977 14.216H212.705ZM232.155 13.928C235.291 13.928 237.787 14.952 239.643 17C241.531 19.016 242.475 21.8 242.475 25.352V41H234.315V26.456C234.315 24.664 233.851 23.272 232.923 22.28C231.995 21.288 230.747 20.792 229.179 20.792C227.611 20.792 226.363 21.288 225.435 22.28C224.507 23.272 224.043 24.664 224.043 26.456V41H215.835V14.216H224.043V17.768C224.875 16.584 225.995 15.656 227.403 14.984C228.811 14.28 230.395 13.928 232.155 13.928Z" fill="#E53E3E"/>
<path d="M246.547 27.56C246.547 24.808 247.059 22.392 248.083 20.312C249.139 18.232 250.563 16.632 252.355 15.512C254.147 14.392 256.147 13.832 258.355 13.832C260.115 13.832 261.715 14.2 263.155 14.936C264.627 15.672 265.779 16.664 266.611 17.912V5.48H274.819V41H266.611V37.16C265.843 38.44 264.739 39.464 263.299 40.232C261.891 41 260.243 41.384 258.355 41.384C256.147 41.384 254.147 40.824 252.355 39.704C250.563 38.552 249.139 36.936 248.083 34.856C247.059 32.744 246.547 30.312 246.547 27.56ZM266.611 27.608C266.611 25.56 266.035 23.944 264.883 22.76C263.763 21.576 262.387 20.984 260.755 20.984C259.123 20.984 257.731 21.576 256.579 22.76C255.459 23.912 254.899 25.512 254.899 27.56C254.899 29.608 255.459 31.24 256.579 32.456C257.731 33.64 259.123 34.232 260.755 34.232C262.387 34.232 263.763 33.64 264.883 32.456C266.035 31.272 266.611 29.656 266.611 27.608ZM306.005 27.176C306.005 27.944 305.957 28.744 305.861 29.576H287.285C287.413 31.24 287.941 32.52 288.869 33.416C289.829 34.28 290.997 34.712 292.373 34.712C294.421 34.712 295.845 33.848 296.645 32.12H305.381C304.933 33.88 304.117 35.464 302.933 36.872C301.781 38.28 300.325 39.384 298.565 40.184C296.805 40.984 294.837 41.384 292.661 41.384C290.037 41.384 287.701 40.824 285.653 39.704C283.605 38.584 282.005 36.984 280.853 34.904C279.701 32.824 279.125 30.392 279.125 27.608C279.125 24.824 279.685 22.392 280.805 20.312C281.957 18.232 283.557 16.632 285.605 15.512C287.653 14.392 290.005 13.832 292.661 13.832C295.253 13.832 297.557 14.376 299.573 15.464C301.589 16.552 303.157 18.104 304.277 20.12C305.429 22.136 306.005 24.488 306.005 27.176ZM297.605 25.016C297.605 23.608 297.125 22.488 296.165 21.656C295.205 20.824 294.005 20.408 292.565 20.408C291.189 20.408 290.021 20.808 289.061 21.608C288.133 22.408 287.557 23.544 287.333 25.016H297.605ZM325.263 34.04V41H321.087C318.111 41 315.791 40.28 314.127 38.84C312.463 37.368 311.631 34.984 311.631 31.688V21.032H308.367V14.216H311.631V7.688H319.839V14.216H325.215V21.032H319.839V31.784C319.839 32.584 320.031 33.16 320.415 33.512C320.799 33.864 321.439 34.04 322.335 34.04H325.263ZM355.083 27.176C355.083 27.944 355.035 28.744 354.939 29.576H336.363C336.491 31.24 337.019 32.52 337.947 33.416C338.907 34.28 340.075 34.712 341.451 34.712C343.499 34.712 344.923 33.848 345.723 32.12H354.459C354.011 33.88 353.195 35.464 352.011 36.872C350.859 38.28 349.403 39.384 347.643 40.184C345.883 40.984 343.915 41.384 341.739 41.384C339.115 41.384 336.779 40.824 334.731 39.704C332.683 38.584 331.083 36.984 329.931 34.904C328.779 32.824 328.203 30.392 328.203 27.608C328.203 24.824 328.763 22.392 329.883 20.312C331.035 18.232 332.635 16.632 334.683 15.512C336.731 14.392 339.083 13.832 341.739 13.832C344.331 13.832 346.635 14.376 348.651 15.464C350.667 16.552 352.235 18.104 353.355 20.12C354.507 22.136 355.083 24.488 355.083 27.176ZM346.683 25.016C346.683 23.608 346.203 22.488 345.243 21.656C344.283 20.824 343.083 20.408 341.643 20.408C340.267 20.408 339.099 20.808 338.139 21.608C337.211 22.408 336.635 23.544 336.411 25.016H346.683ZM357.782 27.608C357.782 24.824 358.342 22.392 359.462 20.312C360.614 18.232 362.198 16.632 364.214 15.512C366.262 14.392 368.598 13.832 371.222 13.832C374.582 13.832 377.382 14.712 379.622 16.472C381.894 18.232 383.382 20.712 384.086 23.912H375.35C374.614 21.864 373.19 20.84 371.078 20.84C369.574 20.84 368.374 21.432 367.478 22.616C366.582 23.768 366.134 25.432 366.134 27.608C366.134 29.784 366.582 31.464 367.478 32.648C368.374 33.8 369.574 34.376 371.078 34.376C373.19 34.376 374.614 33.352 375.35 31.304H384.086C383.382 34.44 381.894 36.904 379.622 38.696C377.35 40.488 374.55 41.384 371.222 41.384C368.598 41.384 366.262 40.824 364.214 39.704C362.198 38.584 360.614 36.984 359.462 34.904C358.342 32.824 357.782 30.392 357.782 27.608ZM403.404 34.04V41H399.228C396.252 41 393.932 40.28 392.268 38.84C390.604 37.368 389.772 34.984 389.772 31.688V21.032H386.508V14.216H389.772V7.688H397.98V14.216H403.356V21.032H397.98V31.784C397.98 32.584 398.172 33.16 398.556 33.512C398.94 33.864 399.58 34.04 400.476 34.04H403.404ZM420.168 41.384C417.544 41.384 415.176 40.824 413.064 39.704C410.984 38.584 409.336 36.984 408.12 34.904C406.936 32.824 406.344 30.392 406.344 27.608C406.344 24.856 406.952 22.44 408.168 20.36C409.384 18.248 411.048 16.632 413.16 15.512C415.272 14.392 417.64 13.832 420.264 13.832C422.888 13.832 425.256 14.392 427.368 15.512C429.48 16.632 431.144 18.248 432.36 20.36C433.576 22.44 434.184 24.856 434.184 27.608C434.184 30.36 433.56 32.792 432.312 34.904C431.096 36.984 429.416 38.584 427.272 39.704C425.16 40.824 422.792 41.384 420.168 41.384ZM420.168 34.28C421.736 34.28 423.064 33.704 424.152 32.552C425.272 31.4 425.832 29.752 425.832 27.608C425.832 25.464 425.288 23.816 424.2 22.664C423.144 21.512 421.832 20.936 420.264 20.936C418.664 20.936 417.336 21.512 416.28 22.664C415.224 23.784 414.696 25.432 414.696 27.608C414.696 29.752 415.208 31.4 416.232 32.552C417.288 33.704 418.6 34.28 420.168 34.28ZM446.747 18.68C447.707 17.208 448.907 16.056 450.347 15.224C451.787 14.36 453.387 13.928 455.147 13.928V22.616H452.891C450.843 22.616 449.307 23.064 448.283 23.96C447.259 24.824 446.747 26.36 446.747 28.568V41H438.539V14.216H446.747V18.68Z" fill="black"/>
</svg>
